<svg width="21" height="24" viewBox="0 0 21 24" fill="none" xmlns="http://www.w3.org/2000/svg">
<path fill-rule="evenodd" clip-rule="evenodd" d="M1.5 0C2.32843 0 3 0.671573 3 1.5V4.65188C4.90514 2.70733 7.56078 1.5 10.5 1.5C15.0741 1.5 18.9614 4.42398 20.4021 8.50013C20.6782 9.28121 20.2688 10.1382 19.4878 10.4143C18.7067 10.6903 17.8497 10.2809 17.5736 9.49987C16.5433 6.58487 13.7632 4.5 10.5 4.5C8.0476 4.5 5.86805 5.67753 4.49903 7.5H9C9.82843 7.5 10.5 8.17157 10.5 9C10.5 9.82843 9.82843 10.5 9 10.5H1.5C0.671573 10.5 0 9.82843 0 9V1.5C0 0.671573 0.671573 0 1.5 0ZM1.51225 13.5857C2.29332 13.3097 3.15031 13.7191 3.42638 14.5001C4.45668 17.4151 7.2368 19.5 10.5 19.5C12.9524 19.5 15.1319 18.3225 16.501 16.5L12 16.5C11.1716 16.5 10.5 15.8284 10.5 15C10.5 14.1716 11.1716 13.5 12 13.5H19.5C19.8978 13.5 20.2794 13.658 20.5607 13.9393C20.842 14.2206 21 14.6022 21 15V22.5C21 23.3284 20.3284 24 19.5 24C18.6716 24 18 23.3284 18 22.5V19.3481C16.0949 21.2927 13.4392 22.5 10.5 22.5C5.92589 22.5 2.03857 19.576 0.597857 15.4999C0.321787 14.7188 0.731174 13.8618 1.51225 13.5857Z" fill="#9CA3AF"/>
</svg>
