<svg width="28" height="26" viewBox="0 0 28 26" fill="none" xmlns="http://www.w3.org/2000/svg">
<mask id="path-1-outside-1_1_107" maskUnits="userSpaceOnUse" x="0" y="0" width="28" height="26" fill="black">
<rect fill="white" width="28" height="26"/>
<path d="M26.34 6.52186C26.176 6.42962 25.9765 6.43991 25.8176 6.54246C23.9484 7.7573 22.0843 8.05957 20.1944 7.88021C19.7233 5.78388 19.8155 3.64636 20.4709 1.67831C20.558 1.41187 20.4146 1.11969 20.1484 1.02743C19.877 0.93518 19.5902 1.08384 19.498 1.35028C18.822 3.38011 18.6941 5.56865 19.1139 7.72681C17.4342 7.41919 15.7289 6.79897 13.9824 6.16357C12.2462 5.52795 10.4897 4.89233 8.71263 4.56431C8.65111 3.46743 8.45649 2.38582 8.10839 1.3505C8.02137 1.08406 7.72944 0.9354 7.45806 1.02765C7.19184 1.11474 7.04331 1.40692 7.13548 1.67853C7.42741 2.56024 7.60659 3.47776 7.67326 4.41049C5.54272 4.17987 3.38667 4.48728 1.23084 5.89179C1.08702 5.98404 1 6.14299 1 6.31719V10.551C1 10.7407 1.10246 10.9099 1.26621 11.0022C1.43018 11.0944 1.62973 11.0841 1.78856 10.9816C3.4889 9.87444 5.18392 9.52582 6.89459 9.60287C6.7767 9.9105 6.65388 10.2179 6.51049 10.5152C5.983 11.6327 5.60402 12.8576 5.36335 14.134C5.36335 14.1443 5.35307 14.1495 5.35307 14.1596V14.1954C5.16873 15.1897 5.07142 16.2149 5.07142 17.2554C5.07142 19.9822 5.70134 22.5706 6.88947 24.7336C6.98163 24.8977 7.15075 25 7.34022 25H20.2667C20.4511 25 20.6253 24.8975 20.7175 24.7336C21.9056 22.5705 22.5355 19.9821 22.5355 17.2554C22.5355 17.1374 22.5253 17.0248 22.5253 16.9068C22.5304 16.8555 22.5407 16.8042 22.5304 16.753C22.5304 16.7427 22.5201 16.7375 22.5201 16.7274C22.4946 15.8867 22.4074 15.0565 22.264 14.2467C22.264 14.2261 22.2691 14.2108 22.264 14.1903C22.2588 14.1748 22.2537 14.1647 22.2485 14.1493C22.187 13.811 22.1103 13.4778 22.0284 13.1447C23.4726 13.0217 24.9271 12.5809 26.3866 11.6325C26.53 11.5403 26.617 11.3761 26.617 11.202V6.9681C26.6065 6.78361 26.5041 6.60942 26.3403 6.52232L26.34 6.52186ZM7.44238 10.9556C7.63186 10.5506 7.80097 10.1304 7.9493 9.71007C9.80827 9.97158 11.693 10.6531 13.629 11.3606C14.6072 11.7195 15.5956 12.0782 16.589 12.3807C17.6234 12.6984 18.6632 12.9496 19.7079 13.0828C19.7285 13.088 19.7488 13.0931 19.7694 13.0931C19.7746 13.0931 19.7797 13.088 19.7848 13.088C20.1792 13.1341 20.5736 13.1648 20.9729 13.1751C21.0344 13.4108 21.1009 13.6414 21.1521 13.8823C16.2767 14.8153 11.3395 14.805 6.46915 13.8517C6.68949 12.8316 7.01721 11.8576 7.44223 10.9556L7.44238 10.9556ZM6.27999 14.8664C8.80472 15.3585 11.3399 15.6146 13.8802 15.6146C16.3691 15.6146 18.858 15.3686 21.3317 14.8919C21.4084 15.3993 21.4545 15.9171 21.4802 16.4451C19.9387 16.8501 14.961 18.5826 14.7097 23.9749H13.0554C12.789 18.3776 7.43717 16.7273 6.12081 16.4044C6.14632 15.8816 6.20269 15.3691 6.27963 14.8667L6.27999 14.8664ZM6.10573 17.4548C7.51932 17.8341 11.775 19.3666 12.0313 23.9747H7.65249C6.66415 22.068 6.13152 19.8282 6.10579 17.4548H6.10573ZM19.959 23.9747H15.734C15.9747 19.4693 19.9487 17.9266 21.5058 17.4905C21.4647 19.8482 20.9372 22.0779 19.9591 23.9747H19.959ZM25.5822 10.9245C24.8089 11.3961 24.0355 11.7088 23.2622 11.9036V11.6421C23.2622 11.3602 23.0318 11.1296 22.7502 11.1296C22.4685 11.1296 22.2381 11.3602 22.2381 11.6421V12.0932C21.5878 12.17 20.9373 12.1752 20.2818 12.1188V11.0936C20.2818 10.8117 20.0514 10.5811 19.7698 10.5811C19.4881 10.5811 19.2577 10.8117 19.2577 11.0936V11.9853C18.6074 11.8725 17.9569 11.7137 17.3015 11.5241V11.0116C17.3015 10.7297 17.071 10.4991 16.7894 10.4991C16.5078 10.4991 16.2773 10.7297 16.2773 11.0116V11.2064C15.632 10.991 14.9765 10.7553 14.3211 10.5195V9.39174C14.3211 9.10985 14.0907 8.87924 13.809 8.87924C13.5274 8.87924 13.297 9.10985 13.297 9.39174V10.1452C12.6466 9.9094 11.9961 9.67878 11.3407 9.47368L11.3399 8.9511C11.3399 8.66921 11.1094 8.4386 10.8278 8.4386C10.5462 8.4386 10.3157 8.66921 10.3157 8.9511V9.16648C9.6654 8.98714 9.01491 8.83333 8.35947 8.73078V7.6852C8.35947 7.40332 8.12906 7.1727 7.84741 7.1727C7.56577 7.1727 7.33536 7.40332 7.33536 7.6852V8.60788C7.03828 8.58235 6.73606 8.5669 6.43405 8.5669C6.0806 8.5669 5.72736 8.5875 5.37394 8.62332V8.31569C5.37394 8.03381 5.14352 7.8032 4.86188 7.8032C4.58024 7.8032 4.34982 8.03381 4.34982 8.31569V8.79236C3.57647 8.96656 2.80312 9.23836 2.02982 9.65348V6.59866C5.83502 4.27667 9.62453 5.66077 13.6345 7.12661C15.6523 7.86476 17.7059 8.60791 19.7751 8.85911C21.7008 9.09487 23.6416 8.90008 25.5876 7.86992L25.5874 10.9245L25.5822 10.9245Z"/>
</mask>
<path d="M26.34 6.52186C26.176 6.42962 25.9765 6.43991 25.8176 6.54246C23.9484 7.7573 22.0843 8.05957 20.1944 7.88021C19.7233 5.78388 19.8155 3.64636 20.4709 1.67831C20.558 1.41187 20.4146 1.11969 20.1484 1.02743C19.877 0.93518 19.5902 1.08384 19.498 1.35028C18.822 3.38011 18.6941 5.56865 19.1139 7.72681C17.4342 7.41919 15.7289 6.79897 13.9824 6.16357C12.2462 5.52795 10.4897 4.89233 8.71263 4.56431C8.65111 3.46743 8.45649 2.38582 8.10839 1.3505C8.02137 1.08406 7.72944 0.9354 7.45806 1.02765C7.19184 1.11474 7.04331 1.40692 7.13548 1.67853C7.42741 2.56024 7.60659 3.47776 7.67326 4.41049C5.54272 4.17987 3.38667 4.48728 1.23084 5.89179C1.08702 5.98404 1 6.14299 1 6.31719V10.551C1 10.7407 1.10246 10.9099 1.26621 11.0022C1.43018 11.0944 1.62973 11.0841 1.78856 10.9816C3.4889 9.87444 5.18392 9.52582 6.89459 9.60287C6.7767 9.9105 6.65388 10.2179 6.51049 10.5152C5.983 11.6327 5.60402 12.8576 5.36335 14.134C5.36335 14.1443 5.35307 14.1495 5.35307 14.1596V14.1954C5.16873 15.1897 5.07142 16.2149 5.07142 17.2554C5.07142 19.9822 5.70134 22.5706 6.88947 24.7336C6.98163 24.8977 7.15075 25 7.34022 25H20.2667C20.4511 25 20.6253 24.8975 20.7175 24.7336C21.9056 22.5705 22.5355 19.9821 22.5355 17.2554C22.5355 17.1374 22.5253 17.0248 22.5253 16.9068C22.5304 16.8555 22.5407 16.8042 22.5304 16.753C22.5304 16.7427 22.5201 16.7375 22.5201 16.7274C22.4946 15.8867 22.4074 15.0565 22.264 14.2467C22.264 14.2261 22.2691 14.2108 22.264 14.1903C22.2588 14.1748 22.2537 14.1647 22.2485 14.1493C22.187 13.811 22.1103 13.4778 22.0284 13.1447C23.4726 13.0217 24.9271 12.5809 26.3866 11.6325C26.53 11.5403 26.617 11.3761 26.617 11.202V6.9681C26.6065 6.78361 26.5041 6.60942 26.3403 6.52232L26.34 6.52186ZM7.44238 10.9556C7.63186 10.5506 7.80097 10.1304 7.9493 9.71007C9.80827 9.97158 11.693 10.6531 13.629 11.3606C14.6072 11.7195 15.5956 12.0782 16.589 12.3807C17.6234 12.6984 18.6632 12.9496 19.7079 13.0828C19.7285 13.088 19.7488 13.0931 19.7694 13.0931C19.7746 13.0931 19.7797 13.088 19.7848 13.088C20.1792 13.1341 20.5736 13.1648 20.9729 13.1751C21.0344 13.4108 21.1009 13.6414 21.1521 13.8823C16.2767 14.8153 11.3395 14.805 6.46915 13.8517C6.68949 12.8316 7.01721 11.8576 7.44223 10.9556L7.44238 10.9556ZM6.27999 14.8664C8.80472 15.3585 11.3399 15.6146 13.8802 15.6146C16.3691 15.6146 18.858 15.3686 21.3317 14.8919C21.4084 15.3993 21.4545 15.9171 21.4802 16.4451C19.9387 16.8501 14.961 18.5826 14.7097 23.9749H13.0554C12.789 18.3776 7.43717 16.7273 6.12081 16.4044C6.14632 15.8816 6.20269 15.3691 6.27963 14.8667L6.27999 14.8664ZM6.10573 17.4548C7.51932 17.8341 11.775 19.3666 12.0313 23.9747H7.65249C6.66415 22.068 6.13152 19.8282 6.10579 17.4548H6.10573ZM19.959 23.9747H15.734C15.9747 19.4693 19.9487 17.9266 21.5058 17.4905C21.4647 19.8482 20.9372 22.0779 19.9591 23.9747H19.959ZM25.5822 10.9245C24.8089 11.3961 24.0355 11.7088 23.2622 11.9036V11.6421C23.2622 11.3602 23.0318 11.1296 22.7502 11.1296C22.4685 11.1296 22.2381 11.3602 22.2381 11.6421V12.0932C21.5878 12.17 20.9373 12.1752 20.2818 12.1188V11.0936C20.2818 10.8117 20.0514 10.5811 19.7698 10.5811C19.4881 10.5811 19.2577 10.8117 19.2577 11.0936V11.9853C18.6074 11.8725 17.9569 11.7137 17.3015 11.5241V11.0116C17.3015 10.7297 17.071 10.4991 16.7894 10.4991C16.5078 10.4991 16.2773 10.7297 16.2773 11.0116V11.2064C15.632 10.991 14.9765 10.7553 14.3211 10.5195V9.39174C14.3211 9.10985 14.0907 8.87924 13.809 8.87924C13.5274 8.87924 13.297 9.10985 13.297 9.39174V10.1452C12.6466 9.9094 11.9961 9.67878 11.3407 9.47368L11.3399 8.9511C11.3399 8.66921 11.1094 8.4386 10.8278 8.4386C10.5462 8.4386 10.3157 8.66921 10.3157 8.9511V9.16648C9.6654 8.98714 9.01491 8.83333 8.35947 8.73078V7.6852C8.35947 7.40332 8.12906 7.1727 7.84741 7.1727C7.56577 7.1727 7.33536 7.40332 7.33536 7.6852V8.60788C7.03828 8.58235 6.73606 8.5669 6.43405 8.5669C6.0806 8.5669 5.72736 8.5875 5.37394 8.62332V8.31569C5.37394 8.03381 5.14352 7.8032 4.86188 7.8032C4.58024 7.8032 4.34982 8.03381 4.34982 8.31569V8.79236C3.57647 8.96656 2.80312 9.23836 2.02982 9.65348V6.59866C5.83502 4.27667 9.62453 5.66077 13.6345 7.12661C15.6523 7.86476 17.7059 8.60791 19.7751 8.85911C21.7008 9.09487 23.6416 8.90008 25.5876 7.86992L25.5874 10.9245L25.5822 10.9245Z" fill="#EC4899"/>
<path d="M26.34 6.52186C26.176 6.42962 25.9765 6.43991 25.8176 6.54246C23.9484 7.7573 22.0843 8.05957 20.1944 7.88021C19.7233 5.78388 19.8155 3.64636 20.4709 1.67831C20.558 1.41187 20.4146 1.11969 20.1484 1.02743C19.877 0.93518 19.5902 1.08384 19.498 1.35028C18.822 3.38011 18.6941 5.56865 19.1139 7.72681C17.4342 7.41919 15.7289 6.79897 13.9824 6.16357C12.2462 5.52795 10.4897 4.89233 8.71263 4.56431C8.65111 3.46743 8.45649 2.38582 8.10839 1.3505C8.02137 1.08406 7.72944 0.9354 7.45806 1.02765C7.19184 1.11474 7.04331 1.40692 7.13548 1.67853C7.42741 2.56024 7.60659 3.47776 7.67326 4.41049C5.54272 4.17987 3.38667 4.48728 1.23084 5.89179C1.08702 5.98404 1 6.14299 1 6.31719V10.551C1 10.7407 1.10246 10.9099 1.26621 11.0022C1.43018 11.0944 1.62973 11.0841 1.78856 10.9816C3.4889 9.87444 5.18392 9.52582 6.89459 9.60287C6.7767 9.9105 6.65388 10.2179 6.51049 10.5152C5.983 11.6327 5.60402 12.8576 5.36335 14.134C5.36335 14.1443 5.35307 14.1495 5.35307 14.1596V14.1954C5.16873 15.1897 5.07142 16.2149 5.07142 17.2554C5.07142 19.9822 5.70134 22.5706 6.88947 24.7336C6.98163 24.8977 7.15075 25 7.34022 25H20.2667C20.4511 25 20.6253 24.8975 20.7175 24.7336C21.9056 22.5705 22.5355 19.9821 22.5355 17.2554C22.5355 17.1374 22.5253 17.0248 22.5253 16.9068C22.5304 16.8555 22.5407 16.8042 22.5304 16.753C22.5304 16.7427 22.5201 16.7375 22.5201 16.7274C22.4946 15.8867 22.4074 15.0565 22.264 14.2467C22.264 14.2261 22.2691 14.2108 22.264 14.1903C22.2588 14.1748 22.2537 14.1647 22.2485 14.1493C22.187 13.811 22.1103 13.4778 22.0284 13.1447C23.4726 13.0217 24.9271 12.5809 26.3866 11.6325C26.53 11.5403 26.617 11.3761 26.617 11.202V6.9681C26.6065 6.78361 26.5041 6.60942 26.3403 6.52232L26.34 6.52186ZM7.44238 10.9556C7.63186 10.5506 7.80097 10.1304 7.9493 9.71007C9.80827 9.97158 11.693 10.6531 13.629 11.3606C14.6072 11.7195 15.5956 12.0782 16.589 12.3807C17.6234 12.6984 18.6632 12.9496 19.7079 13.0828C19.7285 13.088 19.7488 13.0931 19.7694 13.0931C19.7746 13.0931 19.7797 13.088 19.7848 13.088C20.1792 13.1341 20.5736 13.1648 20.9729 13.1751C21.0344 13.4108 21.1009 13.6414 21.1521 13.8823C16.2767 14.8153 11.3395 14.805 6.46915 13.8517C6.68949 12.8316 7.01721 11.8576 7.44223 10.9556L7.44238 10.9556ZM6.27999 14.8664C8.80472 15.3585 11.3399 15.6146 13.8802 15.6146C16.3691 15.6146 18.858 15.3686 21.3317 14.8919C21.4084 15.3993 21.4545 15.9171 21.4802 16.4451C19.9387 16.8501 14.961 18.5826 14.7097 23.9749H13.0554C12.789 18.3776 7.43717 16.7273 6.12081 16.4044C6.14632 15.8816 6.20269 15.3691 6.27963 14.8667L6.27999 14.8664ZM6.10573 17.4548C7.51932 17.8341 11.775 19.3666 12.0313 23.9747H7.65249C6.66415 22.068 6.13152 19.8282 6.10579 17.4548H6.10573ZM19.959 23.9747H15.734C15.9747 19.4693 19.9487 17.9266 21.5058 17.4905C21.4647 19.8482 20.9372 22.0779 19.9591 23.9747H19.959ZM25.5822 10.9245C24.8089 11.3961 24.0355 11.7088 23.2622 11.9036V11.6421C23.2622 11.3602 23.0318 11.1296 22.7502 11.1296C22.4685 11.1296 22.2381 11.3602 22.2381 11.6421V12.0932C21.5878 12.17 20.9373 12.1752 20.2818 12.1188V11.0936C20.2818 10.8117 20.0514 10.5811 19.7698 10.5811C19.4881 10.5811 19.2577 10.8117 19.2577 11.0936V11.9853C18.6074 11.8725 17.9569 11.7137 17.3015 11.5241V11.0116C17.3015 10.7297 17.071 10.4991 16.7894 10.4991C16.5078 10.4991 16.2773 10.7297 16.2773 11.0116V11.2064C15.632 10.991 14.9765 10.7553 14.3211 10.5195V9.39174C14.3211 9.10985 14.0907 8.87924 13.809 8.87924C13.5274 8.87924 13.297 9.10985 13.297 9.39174V10.1452C12.6466 9.9094 11.9961 9.67878 11.3407 9.47368L11.3399 8.9511C11.3399 8.66921 11.1094 8.4386 10.8278 8.4386C10.5462 8.4386 10.3157 8.66921 10.3157 8.9511V9.16648C9.6654 8.98714 9.01491 8.83333 8.35947 8.73078V7.6852C8.35947 7.40332 8.12906 7.1727 7.84741 7.1727C7.56577 7.1727 7.33536 7.40332 7.33536 7.6852V8.60788C7.03828 8.58235 6.73606 8.5669 6.43405 8.5669C6.0806 8.5669 5.72736 8.5875 5.37394 8.62332V8.31569C5.37394 8.03381 5.14352 7.8032 4.86188 7.8032C4.58024 7.8032 4.34982 8.03381 4.34982 8.31569V8.79236C3.57647 8.96656 2.80312 9.23836 2.02982 9.65348V6.59866C5.83502 4.27667 9.62453 5.66077 13.6345 7.12661C15.6523 7.86476 17.7059 8.60791 19.7751 8.85911C21.7008 9.09487 23.6416 8.90008 25.5876 7.86992L25.5874 10.9245L25.5822 10.9245Z" stroke="#EC4899" stroke-width="1.11111" mask="url(#path-1-outside-1_1_107)"/>
</svg>
